<?xml version="1.0" encoding="utf-8"?>
<!-- Generator: Adobe Illustrator 23.0.2, SVG Export Plug-In . SVG Version: 6.00 Build 0)  -->
<svg version="1.1" id="Livello_1" xmlns="http://www.w3.org/2000/svg" xmlns:xlink="http://www.w3.org/1999/xlink" x="0px" y="0px"
	 viewBox="0 0 1020 420" style="enable-background:new 0 0 1020 420;" xml:space="preserve">
<style type="text/css">
	.st0{fill:#D44368;}
	.st1{fill:#EDB21E;}
</style>
<rect y="0" class="st0" width="1020" height="420"/>
<path class="st1" d="M631,240.7L631,240.7c-3.6,0-6.5-2.9-6.5-6.5l0,0v-58.1c0-3.6,2.9-6.5,6.5-6.5l0,0c3.6,0,6.5,2.9,6.5,6.5l0,0
	v58.1C637.5,237.9,634.5,240.7,631,240.7z M435.9,167c-2.8,0.8-5,3.1-5.6,6c-1.4,6.5,4.4,11.8,11,9.9c2.8-0.8,5-3.1,5.6-6
	C448.3,170.4,442.4,165.2,435.9,167z M445,194.2c0-1.1-0.9-2-2-2l0,0l-34.3,0.1c-0.1,0-0.2,0-0.3-0.1h-0.3V192
	c-0.1-0.1-0.1-0.2-0.1-0.3v-0.9c0-4.5,0.7-6.3,1.8-7.7c1.4-1.7,3.7-2.7,5.9-2.7c3.2-0.2,5.6-2.9,5.4-6.1c-0.2-3.1-2.7-5.5-5.9-5.4
	c-6.6,0-11.7,2.4-15.1,5.7c-3.1,3-4.8,7-5.1,13.3v4.4h-0.1v0.1h-7c-3.1,0-5.5,2.5-5.5,5.5c0,2.7,2,5.1,4.7,5.4h7.9v32.1
	c0,3.1,2.5,5.4,5.5,5.4h2c3.1,0,5.5-2.5,5.5-5.5L408,204c0-0.1,0-0.2,0.1-0.3v-0.5h24.1v32c0,3.1,2.5,5.5,5.5,5.5h2
	c3.1,0,5.5-2.5,5.5-5.5l0,0L445,194.2z M591.8,191.2c14.7,0,25.8,11.3,25.8,25.3s-11.1,25.2-25.8,25.2c-14.7,0-25.8-11.2-25.8-25.2
	S577.1,191.2,591.8,191.2z M591.8,229.7c7.7,0,12.8-6,12.8-13.3c0-7.3-5.2-13.3-12.8-13.3s-12.8,6-12.8,13.3
	S584.2,229.7,591.8,229.7z M559.8,176.1c0-3.6-2.9-6.5-6.5-6.5c-3.7,0-6.5,2.9-6.5,6.5v18.3c-3.7-2-8.1-3.2-12.8-3.2
	c-14.7,0-25.8,11.3-25.8,25.3c0,14,11.1,25.2,25.8,25.2c14.7,0,25.8-11.2,25.8-25.2c0-0.3,0-0.6,0-0.9c0-0.2,0-0.3,0-0.4
	L559.8,176.1L559.8,176.1z M534,229.7c-7.7,0-12.8-6-12.8-13.3c0-7.3,5.2-13.3,12.8-13.3s12.8,6,12.8,13.3
	C546.8,223.8,541.5,229.7,534,229.7z M503.4,176.1c0-3.6-2.9-6.5-6.5-6.5s-6.5,2.9-6.5,6.5v18.3c-3.7-2-8.1-3.2-12.8-3.2
	c-14.7,0-25.8,11.3-25.8,25.3c0,14,11.1,25.2,25.8,25.2s25.8-11.2,25.8-25.2c0-0.3,0-0.6,0-0.9c0-0.2,0-0.3,0-0.4L503.4,176.1
	L503.4,176.1z M477.6,229.7c-7.7,0-12.8-6-12.8-13.3c0-7.3,5.2-13.3,12.8-13.3s12.8,6,12.8,13.3
	C490.4,223.8,485.2,229.7,477.6,229.7z M539.7,259.4c2.3-2.3,2.3-6,0-8.3s-6-2.3-8.3,0c-6.8,6.8-16.6,10.6-26.7,10.5
	c-9.7-0.2-18.8-3.9-24.8-10.4c-2.2-2.4-6-2.5-8.3-0.3s-2.5,6-0.3,8.3c8.2,8.8,20.3,13.9,33.2,14.1c0.3,0,0.5,0,0.8,0
	C518.2,273.4,530.8,268.3,539.7,259.4z"/>
</svg>
