<?xml version="1.0" encoding="utf-8"?>
<!-- Generator: Adobe Illustrator 23.0.2, SVG Export Plug-In . SVG Version: 6.00 Build 0)  -->
<svg version="1.1" id="Livello_1" xmlns="http://www.w3.org/2000/svg" xmlns:xlink="http://www.w3.org/1999/xlink" x="0px" y="0px"
	 viewBox="0 0 1020 420" style="enable-background:new 0 0 1020 420;" xml:space="preserve">
<style type="text/css">
	.st0{fill:#D44368;}
	.st1{fill:#EDB21E;}
</style>
<rect class="st0" width="1020" height="420"/>
<path class="st1" d="M652.3,244.4L652.3,244.4c-4.2,0-7.7-3.4-7.7-7.7c0,0,0,0,0,0v-68.3c0-4.2,3.4-7.6,7.7-7.6l0,0
	c4.2,0,7.7,3.4,7.7,7.7c0,0,0,0,0,0v68.3C660,241,656.5,244.4,652.3,244.4z M422.9,157.7c-3.3,0.9-5.9,3.6-6.6,7
	c-1.7,7.7,5.2,13.9,12.9,11.7c3.3-0.9,5.9-3.6,6.6-7C437.4,161.7,430.5,155.5,422.9,157.7z M433.6,189.7c0-1.3-1.1-2.4-2.4-2.3
	c0,0,0,0,0,0l-40.4,0.1c-0.1,0-0.2,0-0.3-0.1h-0.4V187c-0.1-0.1-0.1-0.2-0.1-0.3v-1c0-5.3,0.8-7.4,2.1-9.1c1.7-2,4.3-3.2,6.9-3.2
	c3.8-0.2,6.6-3.4,6.4-7.2c-0.2-3.6-3.2-6.5-6.9-6.4c-7.8,0-13.8,2.8-17.8,6.7c-3.6,3.5-5.6,8.2-6,15.7v5.2h-0.1v0.1h-8.2
	c-3.6,0-6.5,2.9-6.5,6.5c0,3.2,2.4,6,5.5,6.4h9.3v37.8c0,3.6,2.9,6.4,6.5,6.4h2.4c3.6,0,6.5-2.9,6.5-6.5l-0.1-36.9
	c0-0.1,0-0.2,0.1-0.3v-0.6h28.3V238c0,3.6,2.9,6.5,6.5,6.5h2.4c3.6,0,6.5-2.9,6.5-6.5v0L433.6,189.7z M606.2,186.1
	c17.3,0,30.4,13.3,30.4,29.8s-13.1,29.7-30.4,29.7c-17.3,0-30.4-13.2-30.4-29.7S588.9,186.1,606.2,186.1z M606.2,231.4
	c9,0,15.1-7,15.1-15.6c0-8.6-6.1-15.7-15.1-15.7s-15.1,7.1-15.1,15.7S597.3,231.4,606.2,231.4z M568.6,168.4c0-4.2-3.4-7.7-7.7-7.7
	s-7.7,3.4-7.7,7.7v21.5c-4.4-2.4-9.5-3.8-15.1-3.8c-17.3,0-30.4,13.3-30.4,29.8s13,29.7,30.4,29.7c17.3,0,30.4-13.2,30.4-29.7
	c0-0.3,0-0.7,0-1c0-0.2,0-0.3,0-0.5V168.4z M538.2,231.4c-9,0-15.1-7-15.1-15.6c0-8.6,6.1-15.7,15.1-15.7c9,0,15.1,7.1,15.1,15.7
	C553.3,224.5,547.1,231.4,538.2,231.4z M502.3,168.4c0-4.2-3.4-7.7-7.7-7.7s-7.7,3.4-7.7,7.7v21.5c-4.4-2.4-9.5-3.8-15.1-3.8
	c-17.3,0-30.4,13.3-30.4,29.8s13.1,29.7,30.4,29.7c17.3,0,30.4-13.2,30.4-29.7c0-0.3,0-0.7,0-1c0-0.2,0-0.3,0-0.5V168.4z
	 M471.9,231.4c-9,0-15.1-7-15.1-15.6c0-8.6,6.1-15.7,15.1-15.7c9,0,15.1,7.1,15.1,15.7C487,224.5,480.8,231.4,471.9,231.4z
	 M544.9,266.4c2.7-2.7,2.7-7.1,0-9.8c-2.7-2.7-7.1-2.7-9.8,0c-8,8-19.5,12.5-31.4,12.3c-11.4-0.2-22.1-4.6-29.2-12.2
	c-2.6-2.8-7-2.9-9.8-0.3c-2.8,2.6-2.9,7-0.3,9.8c9.7,10.3,23.9,16.3,39.1,16.6c0.3,0,0.6,0,0.9,0
	C519.7,282.8,534.5,276.8,544.9,266.4z"/>
</svg>
