<?xml version="1.0" encoding="utf-8"?>
<!-- Generator: Adobe Illustrator 22.0.0, SVG Export Plug-In . SVG Version: 6.00 Build 0)  -->
<svg version="1.1" id="Layer_1" xmlns="http://www.w3.org/2000/svg" xmlns:xlink="http://www.w3.org/1999/xlink" x="0px" y="0px"
	 viewBox="0 0 110.7 29.4" style="enable-background:new 0 0 110.7 29.4;" xml:space="preserve">
<style type="text/css">
	.st0{fill:#FFFFFF;}
</style>
<g id="w">
	<path class="st0" d="M99.7,11.8c1.7,0,2.8,0.7,2.8,4V17c0,3.3-1.1,4-2.8,4s-2.8-0.7-2.8-4v-1.2C96.9,12.5,98,11.8,99.7,11.8
		 M99.7,11.2c-3.3,0-5.3,2.2-5.3,5.2s2,5.2,5.3,5.2s5.3-2.2,5.3-5.2C104.9,13.4,103,11.2,99.7,11.2 M87.8,11.4h-2.1V12h2.1v6.2
		c0,2.4,1.4,3.4,3.1,3.4c1.3,0,2.1-0.7,2.6-1.7l-0.6-0.3c-0.4,0.8-0.9,1.3-1.6,1.3c-0.9,0-1.2-0.5-1.2-1.9v-6.9h3.2v-0.6h-3.2V7.3
		h-0.6v0.3c0,1.4-0.8,1.8-1.7,1.8C87.8,9.4,87.8,11.4,87.8,11.4z M72.8,11.4V12h1.9v8.8h-1.9v0.6h6v-0.6h-1.9v-4
		c0-2.8,1.3-4.8,3.3-4.8c1.3,0,1.7,0.8,1.7,2.2v6.6H80v0.6h6v-0.6h-1.9v-6.1c0-2.3-1.2-3.5-3.6-3.5c-1.7,0-3.1,1-3.7,2.5h-0.1
		l0.1-2.3l-0.1-0.1C75.5,11.4,74.1,11.4,72.8,11.4 M71.6,17.4h-0.7c0,2.1-1.5,3.6-3.5,3.6c-1.7,0-3-0.7-3-4v-1.2v-0.2h7.2V15
		c0-2.3-1.8-3.8-4.9-3.8s-4.9,2.2-4.9,5.2s2,5.2,5.3,5.2C69.9,21.6,71.6,19.8,71.6,17.4 M69.1,15h-4.8c0.1-2.6,1.1-3.2,2.4-3.2
		C68.3,11.8,69.1,12.4,69.1,15 M51.7,13.9c-0.2-1.8-1.4-2.6-3.4-2.6c-1.7,0-3.1,1-3.7,2.5h-0.1l0.1-2.3l-0.1-0.1
		c-1.3,0-2.7,0.1-4,0.1v0.6h1.9v8.8h-1.9v0.6h6v-0.6h-1.9v-4c0-2.8,1.3-4.8,3.3-4.8c1.3,0,1.7,0.8,1.7,2.2v6.6h-1.9v0.6h6v-0.6h-1.8
		v-4c0-2.8,1.3-4.8,3.3-4.8c1.3,0,1.7,0.8,1.7,2.2v6.6H55v0.6h6v-0.6h-1.9v-6.1c0-2.3-1.2-3.5-3.6-3.5
		C53.7,11.3,52.3,12.3,51.7,13.9C51.7,13.9,51.7,13.9,51.7,13.9z M37.1,21.4v-0.6h-2.7V14c0.5-0.7,1.3-1,2-1c0.9,0,1.5,0.4,1.9,1.1
		l0.5-0.3c-0.2-0.3-0.3-0.7-0.3-1.2c0-0.4,0.2-0.8,0.5-1v-0.7c-2.3,0-4,1.1-4.8,2.6h-0.1l0.1-2.2l-0.1-0.1c-1.3,0-2.6,0.1-3.9,0.1
		v0.6h1.9v8.8h-1.9v0.6h6.9V21.4z M29.1,17.4h-0.6c0,2.1-1.5,3.6-3.5,3.6c-1.7,0-3-0.7-3-4v-1.2v-0.2h7.2V15c0-2.3-1.8-3.8-4.9-3.8
		s-4.9,2.2-4.9,5.2s2,5.2,5.3,5.2C27.5,21.6,29.1,19.8,29.1,17.4 M26.7,15h-4.8c0.1-2.6,1.1-3.2,2.4-3.2
		C25.8,11.8,26.7,12.4,26.7,15 M7.8,20.8H5.7v0.6h7.5v-0.6h-2.9v-5.9h1.9c1.3,0,2.2,0.7,2.3,2.8v0.6h0.6c0-1.2-0.1-2.5-0.1-3.7
		s0-2.5,0.1-3.7h-0.6v0.6c-0.1,2.1-1,2.8-2.3,2.8h-1.9V7.8h4.6c1.6,0,3,0.7,3,3V12h0.6c0-1.1,0-2.8,0.1-4.8l-0.1-0.1
		c-1,0.1-5.1,0.1-5.1,0.1H5.7v0.6h2.1V20.8z"/>
</g>
<g id="b">
</g>
</svg>
