<svg id="Livello_1" data-name="Livello 1" xmlns="http://www.w3.org/2000/svg" viewBox="0 0 254.11 156"><defs><style>.cls-1{fill:#191919;}</style></defs><title>Tavola disegno 1</title><path class="cls-1" d="M25.41,33.5l-3,.48C7.75,36.34,4.21,46.21,4,61.14v72.77c.07,15.38,7.75,23.28,22.75,20.86l3-.48c13.12-2.11,18.43-11,18.38-26.2l-.06-74C48.21,39.77,40.87,31,25.41,33.5ZM30.05,140l-7,1V50l7-1Z"/><polygon class="cls-1" points="82.61 25.41 79.66 83.75 75.89 26.5 54.33 29.97 54.45 149.2 70.38 146.64 70.23 79.98 76.16 145.71 82.88 144.62 88.51 77.04 88.51 143.72 104.76 141.1 104.48 21.89 82.61 25.41"/><path class="cls-1" d="M145.32,69.5c2.84-1.26,7.55-4.9,7.44-13.54l.09-26.3c.08-10.43-6-14.58-14.31-13.25l-27.65,4.45L111,140.1l30.15-4.85c10-1.61,13.16-7.89,13.12-20.06l0-33.17C154.07,73.06,148.65,70.24,145.32,69.5ZM135.05,122l-7,1V81l7-1Zm0-55-7,1V32l7-1Z"/><path class="cls-1" d="M202.38,73.45c0-7-3.87-10.12-7.07-11,4-2.08,6.72-6,6.79-13.59l0-28c-.13-9.76-6.19-13.59-13.54-12.41L160.1,12.94l.12,119.23,16.83-2.71V76.28l7-1.28v52.55a3,3,0,0,0,.54.7l18.75-3,.08-.49c-.67-1.17-1-2.09-1-5.13ZM184.05,60l-7,1V25l7-1Z"/><path class="cls-1" d="M251,117.56,240.56,0,216.19,3.91l-9.1,120.72,16.72-2.69.24-5.26V98.28l8-1.28v14.44l.5,9.09ZM230.05,83l-5,1V39l2.52-.5.06-1.32.08,1.3,2.34-.47V77l.3,4.92-.3,0Z"/></svg>