<?xml version="1.0" encoding="utf-8"?>
<!-- Generator: Adobe Illustrator 23.0.2, SVG Export Plug-In . SVG Version: 6.00 Build 0)  -->
<svg version="1.1" id="Layer_1" xmlns="http://www.w3.org/2000/svg" xmlns:xlink="http://www.w3.org/1999/xlink" x="0px" y="0px"
	 viewBox="0 0 210.7 129.4" style="enable-background:new 0 0 210.7 129.4;" xml:space="preserve">
<style type="text/css">
	.st0{fill:#FFFFFF;}
</style>
<g id="w">
	<path class="st0" d="M149.7,61.8c1.7,0,2.8,0.7,2.8,4V67c0,3.3-1.1,4-2.8,4c-1.7,0-2.8-0.7-2.8-4v-1.2
		C146.9,62.5,148,61.8,149.7,61.8 M149.7,61.2c-3.3,0-5.3,2.2-5.3,5.2s2,5.2,5.3,5.2s5.3-2.2,5.3-5.2
		C154.9,63.4,153,61.2,149.7,61.2 M137.8,61.4h-2.1V62h2.1v6.2c0,2.4,1.4,3.4,3.1,3.4c1.3,0,2.1-0.7,2.6-1.7l-0.6-0.3
		c-0.4,0.8-0.9,1.3-1.6,1.3c-0.9,0-1.2-0.5-1.2-1.9v-6.9h3.2v-0.6h-3.2v-4.2h-0.6v0.3c0,1.4-0.8,1.8-1.7,1.8
		C137.8,59.4,137.8,61.4,137.8,61.4z M122.8,61.4V62h1.9v8.8h-1.9v0.6h6v-0.6h-1.9v-4c0-2.8,1.3-4.8,3.3-4.8c1.3,0,1.7,0.8,1.7,2.2
		v6.6H130v0.6h6v-0.6h-1.9v-6.1c0-2.3-1.2-3.5-3.6-3.5c-1.7,0-3.1,1-3.7,2.5h-0.1l0.1-2.3l-0.1-0.1
		C125.5,61.4,124.1,61.4,122.8,61.4 M121.6,67.4h-0.7c0,2.1-1.5,3.6-3.5,3.6c-1.7,0-3-0.7-3-4v-1.2v-0.2h7.2V65
		c0-2.3-1.8-3.8-4.9-3.8s-4.9,2.2-4.9,5.2s2,5.2,5.3,5.2C119.9,71.6,121.6,69.8,121.6,67.4 M119.1,65h-4.8c0.1-2.6,1.1-3.2,2.4-3.2
		C118.3,61.8,119.1,62.4,119.1,65 M101.7,63.9c-0.2-1.8-1.4-2.6-3.4-2.6c-1.7,0-3.1,1-3.7,2.5h-0.1l0.1-2.3l-0.1-0.1
		c-1.3,0-2.7,0.1-4,0.1v0.6h1.9v8.8h-1.9v0.6h6v-0.6h-1.9v-4c0-2.8,1.3-4.8,3.3-4.8c1.3,0,1.7,0.8,1.7,2.2v6.6h-1.9v0.6h6v-0.6h-1.8
		v-4c0-2.8,1.3-4.8,3.3-4.8c1.3,0,1.7,0.8,1.7,2.2v6.6H105v0.6h6v-0.6h-1.9v-6.1c0-2.3-1.2-3.5-3.6-3.5
		C103.7,61.3,102.3,62.3,101.7,63.9L101.7,63.9z M87.1,71.4v-0.6h-2.7V64c0.5-0.7,1.3-1,2-1c0.9,0,1.5,0.4,1.9,1.1l0.5-0.3
		c-0.2-0.3-0.3-0.7-0.3-1.2c0-0.4,0.2-0.8,0.5-1v-0.7c-2.3,0-4,1.1-4.8,2.6h-0.1l0.1-2.2l-0.1-0.1c-1.3,0-2.6,0.1-3.9,0.1v0.6h1.9
		v8.8h-1.9v0.6L87.1,71.4C87.1,71.3,87.1,71.4,87.1,71.4z M79.1,67.4h-0.6c0,2.1-1.5,3.6-3.5,3.6c-1.7,0-3-0.7-3-4v-1.2v-0.2h7.2V65
		c0-2.3-1.8-3.8-4.9-3.8s-4.9,2.2-4.9,5.2s2,5.2,5.3,5.2C77.5,71.6,79.1,69.8,79.1,67.4 M76.7,65h-4.8c0.1-2.6,1.1-3.2,2.4-3.2
		C75.8,61.8,76.7,62.4,76.7,65 M57.8,70.8h-2.1v0.6h7.5v-0.6h-2.9v-5.9h1.9c1.3,0,2.2,0.7,2.3,2.8v0.6h0.6c0-1.2-0.1-2.5-0.1-3.7
		c0-1.2,0-2.5,0.1-3.7h-0.6v0.6c-0.1,2.1-1,2.8-2.3,2.8h-1.9v-6.5h4.6c1.6,0,3,0.7,3,3V62h0.6c0-1.1,0-2.8,0.1-4.8l-0.1-0.1
		c-1,0.1-5.1,0.1-5.1,0.1h-7.7v0.6h2.1C57.8,57.8,57.8,70.8,57.8,70.8z"/>
</g>
<g id="b">
</g>
</svg>
