<?xml version="1.0" encoding="utf-8"?>
<!-- Generator: Adobe Illustrator 23.0.2, SVG Export Plug-In . SVG Version: 6.00 Build 0)  -->
<svg version="1.1" id="Layer_1" xmlns="http://www.w3.org/2000/svg" xmlns:xlink="http://www.w3.org/1999/xlink" x="0px" y="0px"
	 viewBox="0 0 1020 420" style="enable-background:new 0 0 1020 420;" xml:space="preserve">
<style type="text/css">
	.st0{fill:#FFFFFF;}
</style>
<path class="st0" d="M661.9,200.9c5.8,0,9.6,2.4,9.6,13.7v4.1c0,11.3-3.8,13.7-9.6,13.7s-9.6-2.4-9.6-13.7v-4.1
	C652.3,203.3,656,200.9,661.9,200.9 M661.9,198.9c-11.3,0-18.1,7.5-18.1,17.8c0,10.3,6.8,17.8,18.1,17.8c11.3,0,18.1-7.5,18.1-17.8
	C679.7,206.4,673.2,198.9,661.9,198.9 M621.1,199.5h-7.2v2.1h7.2v21.2c0,8.2,4.8,11.6,10.6,11.6c4.5,0,7.2-2.4,8.9-5.8l-2.1-1
	c-1.4,2.7-3.1,4.5-5.5,4.5c-3.1,0-4.1-1.7-4.1-6.5v-23.6h11v-2.1h-11v-14.4h-2.1v1c0,4.8-2.7,6.2-5.8,6.2
	C621.1,192.7,621.1,199.5,621.1,199.5z M569.7,199.5v2.1h6.5v30.1h-6.5v2.1h20.5v-2.1h-6.5V218c0-9.6,4.5-16.4,11.3-16.4
	c4.5,0,5.8,2.7,5.8,7.5v22.6h-6.5v2.1h20.5v-2.1h-6.5v-20.9c0-7.9-4.1-12-12.3-12c-5.8,0-10.6,3.4-12.7,8.6h-0.3l0.3-7.9l-0.3-0.3
	C579,199.5,574.2,199.5,569.7,199.5 M565.6,220.1h-2.4c0,7.2-5.1,12.3-12,12.3c-5.8,0-10.3-2.4-10.3-13.7v-4.1v-0.7h24.7v-2.1
	c0-7.9-6.2-13-16.8-13c-10.6,0-16.8,7.5-16.8,17.8c0,10.3,6.8,17.8,18.1,17.8C559.8,234.5,565.6,228.3,565.6,220.1 M557.1,211.9
	h-16.4c0.3-8.9,3.8-11,8.2-11C554.3,200.9,557.1,203,557.1,211.9 M497.5,208.1c-0.7-6.2-4.8-8.9-11.6-8.9c-5.8,0-10.6,3.4-12.7,8.6
	h-0.3l0.3-7.9l-0.3-0.3c-4.5,0-9.2,0.3-13.7,0.3v2.1h6.5v30.1h-6.5v2.1h20.5v-2.1h-6.5v-13.7c0-9.6,4.5-16.4,11.3-16.4
	c4.5,0,5.8,2.7,5.8,7.5v22.6h-6.5v2.1h20.5v-2.1h-6.2v-13.7c0-9.6,4.5-16.4,11.3-16.4c4.5,0,5.8,2.7,5.8,7.5v22.6h-6.5v2.1h20.5
	v-2.1h-6.5v-20.9c0-7.9-4.1-12-12.3-12C504.4,199.2,499.6,202.6,497.5,208.1L497.5,208.1z M447.5,233.8v-2.1h-9.2v-23.3
	c1.7-2.4,4.5-3.4,6.8-3.4c3.1,0,5.1,1.4,6.5,3.8l1.7-1c-0.7-1-1-2.4-1-4.1c0-1.4,0.7-2.7,1.7-3.4v-2.4c-7.9,0-13.7,3.8-16.4,8.9
	h-0.3l0.3-7.5l-0.3-0.3c-4.5,0-8.9,0.3-13.4,0.3v2.1h6.5v30.1h-6.5v2.1L447.5,233.8C447.5,233.4,447.5,233.8,447.5,233.8z
	 M420.1,220.1h-2.1c0,7.2-5.1,12.3-12,12.3c-5.8,0-10.3-2.4-10.3-13.7v-4.1v-0.7h24.7v-2.1c0-7.9-6.2-13-16.8-13
	s-16.8,7.5-16.8,17.8c0,10.3,6.8,17.8,18.1,17.8C414.6,234.5,420.1,228.3,420.1,220.1 M411.9,211.9h-16.4c0.3-8.9,3.8-11,8.2-11
	C408.8,200.9,411.9,203,411.9,211.9 M347.2,231.7H340v2.1h25.7v-2.1h-9.9v-20.2h6.5c4.5,0,7.5,2.4,7.9,9.6v2.1h2.1
	c0-4.1-0.3-8.6-0.3-12.7s0-8.6,0.3-12.7h-2.1v2.1c-0.3,7.2-3.4,9.6-7.9,9.6h-6.5v-22.3h15.8c5.5,0,10.3,2.4,10.3,10.3v4.1h2.1
	c0-3.8,0-9.6,0.3-16.4l-0.3-0.3c-3.4,0.3-17.5,0.3-17.5,0.3H340v2.1h7.2V231.7z"/>
</svg>
