<?xml version="1.0" encoding="utf-8"?>
<!-- Generator: Adobe Illustrator 23.0.2, SVG Export Plug-In . SVG Version: 6.00 Build 0)  -->
<svg version="1.1" id="Layer_1" xmlns="http://www.w3.org/2000/svg" xmlns:xlink="http://www.w3.org/1999/xlink" x="0px" y="0px"
	 viewBox="0 0 1020 420" style="enable-background:new 0 0 1020 420;" xml:space="preserve">
<style type="text/css">
	.st0{fill:#FFFFFF;}
</style>
<path class="st0" d="M624,203.1c4.4,0,7.2,1.8,7.2,10.3v3.1c0,8.5-2.9,10.3-7.2,10.3s-7.2-1.8-7.2-10.3v-3.1
	C616.8,204.9,619.6,203.1,624,203.1 M624,201.6c-8.5,0-13.6,5.6-13.6,13.4s5.1,13.4,13.6,13.4s13.6-5.6,13.6-13.4
	C637.3,207.2,632.5,201.6,624,201.6 M593.4,202H588v1.6h5.4v15.9c0,6.2,3.6,8.7,8,8.7c3.4,0,5.4-1.8,6.7-4.4l-1.6-0.8
	c-1.1,2-2.3,3.4-4.1,3.4c-2.3,0-3.1-1.3-3.1-4.9v-17.7h8.3v-1.6h-8.3v-10.8h-1.6v0.8c0,3.6-2,4.7-4.4,4.7
	C593.4,196.9,593.4,202,593.4,202z M554.8,202v1.6h4.9v22.6h-4.9v1.6h15.4v-1.6h-4.9v-10.3c0-7.2,3.4-12.3,8.5-12.3
	c3.4,0,4.4,2,4.4,5.6v17h-4.9v1.6h15.4v-1.6h-4.9v-15.7c0-5.9-3.1-9-9.2-9c-4.4,0-8,2.6-9.5,6.5h-0.2l0.2-5.9l-0.2-0.2
	C561.8,202,558.2,202,554.8,202 M551.7,217.5h-1.8c0,5.4-3.8,9.2-9,9.2c-4.4,0-7.7-1.8-7.7-10.3v-3.1v-0.5h18.5v-1.6
	c0-5.9-4.7-9.8-12.6-9.8s-12.6,5.6-12.6,13.4s5.1,13.4,13.6,13.4C547.4,228.3,551.7,223.7,551.7,217.5 M545.3,211.4H533
	c0.2-6.7,2.9-8.3,6.2-8.3C543.2,203.1,545.3,204.7,545.3,211.4 M500.6,208.5c-0.5-4.7-3.6-6.7-8.7-6.7c-4.4,0-8,2.6-9.5,6.5h-0.2
	l0.2-5.9l-0.2-0.2c-3.4,0-6.9,0.2-10.3,0.2v1.6h4.9v22.6h-4.9v1.6h15.4v-1.6h-4.9v-10.3c0-7.2,3.4-12.3,8.5-12.3
	c3.4,0,4.4,2,4.4,5.6v17h-4.9v1.6h15.4v-1.6h-4.7v-10.3c0-7.2,3.4-12.3,8.5-12.3c3.4,0,4.4,2,4.4,5.6v17H509v1.6h15.4v-1.6h-4.9
	v-15.7c0-5.9-3.1-9-9.2-9C505.8,201.8,502.2,204.4,500.6,208.5L500.6,208.5z M463.1,227.8v-1.6h-6.9v-17.5c1.3-1.8,3.4-2.6,5.1-2.6
	c2.3,0,3.8,1.1,4.9,2.9l1.3-0.8c-0.5-0.8-0.8-1.8-0.8-3.1c0-1.1,0.5-2,1.3-2.6v-1.8c-5.9,0-10.3,2.9-12.3,6.7h-0.2l0.2-5.6l-0.2-0.2
	c-3.4,0-6.7,0.2-10.1,0.2v1.6h4.9v22.6h-4.9v1.6L463.1,227.8C463.1,227.5,463.1,227.8,463.1,227.8z M442.5,217.5H441
	c0,5.4-3.8,9.2-9,9.2c-4.4,0-7.7-1.8-7.7-10.3v-3.1v-0.5h18.5v-1.6c0-5.9-4.7-9.8-12.6-9.8c-8,0-12.6,5.6-12.6,13.4
	s5.1,13.4,13.6,13.4C438.4,228.3,442.5,223.7,442.5,217.5 M436.4,211.4h-12.3c0.2-6.7,2.9-8.3,6.2-8.3
	C434.1,203.1,436.4,204.7,436.4,211.4 M387.8,226.2h-5.4v1.6h19.3v-1.6h-7.4v-15.2h4.9c3.4,0,5.6,1.8,5.9,7.2v1.6h1.6
	c0-3.1-0.2-6.5-0.2-9.5s0-6.5,0.2-9.5h-1.6v1.6c-0.2,5.4-2.6,7.2-5.9,7.2h-4.9v-16.7h11.9c4.1,0,7.7,1.8,7.7,7.7v3.1h1.6
	c0-2.9,0-7.2,0.2-12.3l-0.2-0.2c-2.6,0.2-13.1,0.2-13.1,0.2h-19.9v1.6h5.4V226.2z"/>
</svg>
